REM DIRINDEX 1\2\4,1\2\5,1\3\6,1\3\7
REM DIRNAME folder01,folder02,folder03,folder04,folder05,folder06,folder07
TITLE ""
FILE "grammar_ch07.mp3" MP3
  TRACK 01 AUDIO
    TITLE "5:cjc072_457"
    INDEX 01 00:00:00
  TRACK 02 AUDIO
    TITLE "5:cjc072_458"
    INDEX 01 00:01:69
  TRACK 03 AUDIO
    TITLE "4:cjc072_459"
    INDEX 01 00:03:39
  TRACK 04 AUDIO
    TITLE "0:"
    INDEX 01 00:10:31
  TRACK 05 AUDIO
    TITLE "7:cjc072_460"
    INDEX 01 00:11:68
  TRACK 06 AUDIO
    TITLE "7:cjc072_461"
    INDEX 01 00:14:04
  TRACK 07 AUDIO
    TITLE "6:cjc072_462"
    INDEX 01 00:15:46
  TRACK 08 AUDIO
    TITLE "0:"
    INDEX 01 00:21:66
  TRACK 09 AUDIO
    TITLE "5:cjc072_463"
    INDEX 01 00:23:28
  TRACK 10 AUDIO
    TITLE "4:cjc072_464"
    INDEX 01 00:24:67
  TRACK 11 AUDIO
    TITLE "0:"
    INDEX 01 00:31:61
  TRACK 12 AUDIO
    TITLE "7:cjc072_465"
    INDEX 01 00:33:24
  TRACK 13 AUDIO
    TITLE "6:cjc072_466"
    INDEX 01 00:34:61
  TRACK 14 AUDIO
    TITLE "0:"
    INDEX 01 00:41:40
  TRACK 15 AUDIO
    TITLE "5:cjc072_467"
    INDEX 01 00:43:03
  TRACK 16 AUDIO
    TITLE "4:cjc072_468"
    INDEX 01 00:44:38
  TRACK 17 AUDIO
    TITLE "0:"
    INDEX 01 00:51:67
  TRACK 18 AUDIO
    TITLE "7:cjc072_469"
    INDEX 01 00:53:27
  TRACK 19 AUDIO
    TITLE "6:cjc072_470"
    INDEX 01 00:54:64
  TRACK 20 AUDIO
    TITLE "0:"
    INDEX 01 01:01:52
  TRACK 21 AUDIO
    TITLE "5:cjc072_471"
    INDEX 01 01:03:16
  TRACK 22 AUDIO
    TITLE "4:cjc072_472"
    INDEX 01 01:04:50
  TRACK 23 AUDIO
    TITLE "0:"
    INDEX 01 01:11:70
  TRACK 24 AUDIO
    TITLE "7:cjc072_473"
    INDEX 01 01:13:32
  TRACK 25 AUDIO
    TITLE "6:cjc072_474"
    INDEX 01 01:14:72
  TRACK 26 AUDIO
    TITLE "0:"
    INDEX 01 01:21:39
  TRACK 27 AUDIO
    TITLE "5:cjc072_475"
    INDEX 01 01:23:07
  TRACK 28 AUDIO
    TITLE "4:cjc072_476"
    INDEX 01 01:24:59
  TRACK 29 AUDIO
    TITLE "0:"
    INDEX 01 01:32:62
  TRACK 30 AUDIO
    TITLE "7:cjc072_477"
    INDEX 01 01:34:24
  TRACK 31 AUDIO
    TITLE "6:cjc072_478"
    INDEX 01 01:35:69
  TRACK 32 AUDIO
    TITLE "0:"
    INDEX 01 01:43:09
  TRACK 33 AUDIO
    TITLE "5:cjc072_479"
    INDEX 01 01:44:46
  TRACK 34 AUDIO
    TITLE "4:cjc072_480"
    INDEX 01 01:46:19
  TRACK 35 AUDIO
    TITLE "0:"
    INDEX 01 01:54:25
  TRACK 36 AUDIO
    TITLE "7:cjc072_481"
    INDEX 01 01:55:62
  TRACK 37 AUDIO
    TITLE "6:cjc072_482"
    INDEX 01 01:57:41
  TRACK 38 AUDIO
    TITLE "0:"
    INDEX 01 02:05:19
  TRACK 39 AUDIO
    TITLE "5:cjc072_483"
    INDEX 01 02:06:57
  TRACK 40 AUDIO
    TITLE "4:cjc072_484"
    INDEX 01 02:08:33
  TRACK 41 AUDIO
    TITLE "0:"
    INDEX 01 02:13:14
  TRACK 42 AUDIO
    TITLE "7:cjc072_485"
    INDEX 01 02:14:55
  TRACK 43 AUDIO
    TITLE "6:cjc072_486"
    INDEX 01 02:16:26
  TRACK 44 AUDIO
    TITLE "0:"
    INDEX 01 02:20:58
  TRACK 45 AUDIO
    TITLE "5:cjc072_487"
    INDEX 01 02:22:21
  TRACK 46 AUDIO
    TITLE "4:cjc072_488"
    INDEX 01 02:23:62
  TRACK 47 AUDIO
    TITLE "0:"
    INDEX 01 02:30:38
  TRACK 48 AUDIO
    TITLE "7:cjc072_489"
    INDEX 01 02:32:00
  TRACK 49 AUDIO
    TITLE "6:cjc072_490"
    INDEX 01 02:33:41
  TRACK 50 AUDIO
    TITLE "0:"
    INDEX 01 02:40:15
  TRACK 51 AUDIO
    TITLE "5:cjc072_491"
    INDEX 01 02:41:52
  TRACK 52 AUDIO
    TITLE "4:cjc072_492"
    INDEX 01 02:43:19
  TRACK 53 AUDIO
    TITLE "0:"
    INDEX 01 02:50:49
  TRACK 54 AUDIO
    TITLE "7:cjc072_493"
    INDEX 01 02:52:11
  TRACK 55 AUDIO
    TITLE "6:cjc072_494"
    INDEX 01 02:53:59
  TRACK 56 AUDIO
    TITLE "0:"
    INDEX 01 03:00:51
  TRACK 57 AUDIO
    TITLE "5:cjc072_495"
    INDEX 01 03:02:13
  TRACK 58 AUDIO
    TITLE "4:cjc072_496"
    INDEX 01 03:03:53
  TRACK 59 AUDIO
    TITLE "0:"
    INDEX 01 03:12:25
  TRACK 60 AUDIO
    TITLE "7:cjc072_497"
    INDEX 01 03:13:62
  TRACK 61 AUDIO
    TITLE "6:cjc072_498"
    INDEX 01 03:15:31
  TRACK 62 AUDIO
    TITLE "0:"
    INDEX 01 03:23:07
  TRACK 63 AUDIO
    TITLE "5:cjc072_499"
    INDEX 01 03:24:48
  TRACK 64 AUDIO
    TITLE "4:cjc072_500"
    INDEX 01 03:26:23
  TRACK 65 AUDIO
    TITLE "0:"
    INDEX 01 03:37:19
  TRACK 66 AUDIO
    TITLE "7:cjc072_501"
    INDEX 01 03:38:54
  TRACK 67 AUDIO
    TITLE "6:cjc072_502"
    INDEX 01 03:40:37
  TRACK 68 AUDIO
    TITLE "0:"
    INDEX 01 03:50:18
  TRACK 69 AUDIO
    TITLE "5:cjc072_503"
    INDEX 01 03:51:58
  TRACK 70 AUDIO
    TITLE "4:cjc072_504"
    INDEX 01 03:53:22
  TRACK 71 AUDIO
    TITLE "0:"
    INDEX 01 04:00:16
  TRACK 72 AUDIO
    TITLE "7:cjc072_505"
    INDEX 01 04:01:55
  TRACK 73 AUDIO
    TITLE "6:cjc072_506"
    INDEX 01 04:03:24
  TRACK 74 AUDIO
    TITLE "0:"
    INDEX 01 04:10:03
  TRACK 75 AUDIO
    TITLE "5:cjc072_507"
    INDEX 01 04:11:41
  TRACK 76 AUDIO
    TITLE "4:cjc072_508"
    INDEX 01 04:13:21
  TRACK 77 AUDIO
    TITLE "0:"
    INDEX 01 04:20:03
  TRACK 78 AUDIO
    TITLE "7:cjc072_509"
    INDEX 01 04:21:42
  TRACK 79 AUDIO
    TITLE "6:cjc072_510"
    INDEX 01 04:23:27
  TRACK 80 AUDIO
    TITLE "0:"
    INDEX 01 04:29:45
  TRACK 81 AUDIO
    TITLE "5:cjc072_511"
    INDEX 01 04:31:11
  TRACK 82 AUDIO
    TITLE "4:cjc072_512"
    INDEX 01 04:32:73
  TRACK 83 AUDIO
    TITLE "0:"
    INDEX 01 04:42:13
  TRACK 84 AUDIO
    TITLE "7:cjc072_513"
    INDEX 01 04:43:43
  TRACK 85 AUDIO
    TITLE "6:cjc072_514"
    INDEX 01 04:45:31
  TRACK 86 AUDIO
    TITLE "0:"
    INDEX 01 04:54:49
  TRACK 87 AUDIO
    TITLE "5:cjc072_515"
    INDEX 01 04:56:11
  TRACK 88 AUDIO
    TITLE "4:cjc072_516"
    INDEX 01 04:57:63
  TRACK 89 AUDIO
    TITLE "0:"
    INDEX 01 05:03:32
  TRACK 90 AUDIO
    TITLE "7:cjc072_517"
    INDEX 01 05:04:73
  TRACK 91 AUDIO
    TITLE "6:cjc072_518"
    INDEX 01 05:06:60
  TRACK 92 AUDIO
    TITLE "0:"
    INDEX 01 05:12:37
